<svg xmlns="http://www.w3.org/2000/svg" viewBox="0 0 900 300" width="900" height="300">
  <defs>
    <style>
      .bg{fill:#0d1117}
      .p1{opacity:0;animation:m 14s ease infinite}
      .rf{fill:#e94560}
      .eye-glow{fill:#e94560;opacity:0;animation:gw 14s ease infinite}
      .pulse{animation:pu 2s ease-in-out infinite}
      .tag{fill:#e94560;font-family:'Segoe UI',system-ui,sans-serif;font-size:16px;font-weight:600;letter-spacing:8px;opacity:0;text-anchor:middle;animation:tg 14s ease infinite}
      .nm{fill:#e94560;font-family:'Segoe UI',system-ui,sans-serif;font-size:44px;font-weight:700;letter-spacing:6px;opacity:0;text-anchor:middle;animation:n 14s ease infinite}
      .sb{fill:#8b949e;font-family:'Segoe UI',system-ui,sans-serif;font-size:12px;font-weight:400;letter-spacing:4px;opacity:0;text-anchor:middle;animation:s 14s ease infinite}
      .dv{stroke:#e94560;stroke-width:1;opacity:0;animation:s 14s ease infinite}
      @keyframes m{0%,3%{opacity:0}8%{opacity:1}32%{opacity:1}38%{opacity:0}100%{opacity:0}}
      @keyframes gw{0%,3%{opacity:0}6%{opacity:0}10%{opacity:.15}32%{opacity:.15}38%{opacity:0}100%{opacity:0}}
      @keyframes pu{0%,100%{r:6}50%{r:7.5}}
      @keyframes tg{0%,14%{opacity:0}20%{opacity:1}32%{opacity:1}38%{opacity:0}100%{opacity:0}}
      @keyframes n{0%,44%{opacity:0;letter-spacing:20px}54%{opacity:1;letter-spacing:6px}82%{opacity:1}90%{opacity:0}100%{opacity:0}}
      @keyframes s{0%,56%{opacity:0}64%{opacity:1}82%{opacity:1}90%{opacity:0}100%{opacity:0}}
    </style>
  </defs>

  <rect class="bg" width="900" height="300" rx="16"/>

  <!-- Eye glow aura -->
  <circle class="eye-glow" cx="450" cy="95" r="30" filter="url(#blur)"/>
  <defs><filter id="blur"><feGaussianBlur stdDeviation="8"/></filter></defs>

  <!-- Outer Ring: 3 blades, CW 8s -->
  <g class="p1">
    <g>
      <circle cx="450" cy="95" r="72" fill="none" stroke="#e94560" stroke-width="1" opacity="0.3"/>
      <path class="rf" d="M450,23 C458,32 460,52 454,64 C450,54 446,38 450,23Z"/>
      <path class="rf" d="M450,23 C458,32 460,52 454,64 C450,54 446,38 450,23Z" transform="rotate(120 450 95)"/>
      <path class="rf" d="M450,23 C458,32 460,52 454,64 C450,54 446,38 450,23Z" transform="rotate(240 450 95)"/>
      <animateTransform attributeName="transform" type="rotate" from="0 450 95" to="360 450 95" dur="8s" repeatCount="indefinite"/>
    </g>
  </g>

  <!-- Middle Ring: 3 tomoe, CCW 6s -->
  <g class="p1">
    <g>
      <circle cx="450" cy="95" r="55" fill="none" stroke="#e94560" stroke-width="1" opacity="0.2"/>
      <circle cx="450" cy="40" r="5" fill="#e94560"/>
      <path class="rf" d="M455,42 C462,52 458,64 452,58 C455,52 456,46 455,42Z"/>
      <g transform="rotate(120 450 95)">
        <circle cx="450" cy="40" r="5" fill="#e94560"/>
        <path class="rf" d="M455,42 C462,52 458,64 452,58 C455,52 456,46 455,42Z"/>
      </g>
      <g transform="rotate(240 450 95)">
        <circle cx="450" cy="40" r="5" fill="#e94560"/>
        <path class="rf" d="M455,42 C462,52 458,64 452,58 C455,52 456,46 455,42Z"/>
      </g>
      <animateTransform attributeName="transform" type="rotate" from="360 450 95" to="0 450 95" dur="6s" repeatCount="indefinite"/>
    </g>
  </g>

  <!-- Inner Ring: circle + 3 dots, CW 4s -->
  <g class="p1">
    <g>
      <circle cx="450" cy="95" r="42" fill="none" stroke="#e94560" stroke-width="1.5" opacity="0.5"/>
      <circle cx="450" cy="53" r="3" fill="#e94560"/>
      <circle cx="450" cy="53" r="3" fill="#e94560" transform="rotate(120 450 95)"/>
      <circle cx="450" cy="53" r="3" fill="#e94560" transform="rotate(240 450 95)"/>
      <animateTransform attributeName="transform" type="rotate" from="0 450 95" to="360 450 95" dur="4s" repeatCount="indefinite"/>
    </g>
  </g>

  <!-- === THE EYE (Sharingan Center) === -->
  <g class="p1">
    <!-- Eye shape - almond -->
    <path d="M420,95 C432,72 468,72 480,95 C468,118 432,118 420,95Z" fill="#e94560"/>
    <!-- Iris -->
    <circle cx="450" cy="95" r="16" fill="#200000" stroke="#e94560" stroke-width="1.5"/>
    <!-- Iris ring detail -->
    <circle cx="450" cy="95" r="12" fill="none" stroke="#e94560" stroke-width="0.5" opacity="0.5"/>
    <!-- Pupil (pulsing) -->
    <circle cx="450" cy="95" r="6" fill="#0d1117" class="pulse"/>
    <!-- Glint -->
    <circle cx="444" cy="89" r="2.5" fill="#ffffff" opacity="0.7"/>
    <circle cx="447" cy="86" r="1" fill="#ffffff" opacity="0.4"/>
  </g>

  <!-- Phase 1 tagline -->
  <text class="tag" x="450" y="200">BREAK · BUILD · AUDIT</text>

  <!-- Phase 2: Name -->
  <text class="nm" x="450" y="145">NGUYEN DINH AN NINH</text>
  <line class="dv" x1="270" y1="165" x2="630" y2="165"/>
  <text class="sb" x="450" y="190">OFFENSIVE SECURITY · BLOCKCHAIN AUDITING · AI ENGINEERING</text>
</svg>
